{
  "accessors": [
    {
      "bufferView": 2,
      "componentType": 5126,
      "count": 48,
      "max": [
        12.610175132751465,
        14.256223678588867,
        0.2442791759967804
      ],
      "min": [
        -12.658176422119141,
        -0.17717742919921875,
        -0.2442791759967804
      ],
      "type": "VEC3"
    },
    {
      "bufferView": 2,
      "byteOffset": 576,
      "componentType": 5126,
      "count": 48,
      "max": [
        1,
        1,
        1
      ],
      "min": [
        -1,
        -1,
        -1
      ],
      "type": "VEC3"
    },
    {
      "bufferView": 3,
      "componentType": 5126,
      "count": 48,
      "max": [
        1,
        0,
        1,
        1
      ],
      "min": [
        0,
        0,
        -1,
        1
      ],
      "type": "VEC4"
    },
    {
      "bufferView": 1,
      "componentType": 5126,
      "count": 48,
      "max": [
        0.25159671902656555,
        0.99800795316696167
      ],
      "min": [
        0.00050218898104503751,
        0.0019920319318771362
      ],
      "type": "VEC2"
    },
    {
      "bufferView": 1,
      "byteOffset": 384,
      "componentType": 5126,
      "count": 48,
      "max": [
        0.25159671902656555,
        0.99800795316696167
      ],
      "min": [
        0.00050218898104503751,
        0.0019920319318771362
      ],
      "type": "VEC2"
    },
    {
      "bufferView": 1,
      "byteOffset": 768,
      "componentType": 5126,
      "count": 48,
      "max": [
        0.25159671902656555,
        0.99800795316696167
      ],
      "min": [
        0.00050218898104503751,
        0.0019920319318771362
      ],
      "type": "VEC2"
    },
    {
      "bufferView": 1,
      "byteOffset": 1152,
      "componentType": 5126,
      "count": 48,
      "max": [
        0.25159671902656555,
        0.99800795316696167
      ],
      "min": [
        0.00050218898104503751,
        0.0019920319318771362
      ],
      "type": "VEC2"
    },
    {
      "bufferView": 0,
      "componentType": 5125,
      "count": 72,
      "max": [
        47
      ],
      "min": [
        0
      ],
      "type": "SCALAR"
    },
    {
      "bufferView": 2,
      "byteOffset": 1152,
      "componentType": 5126,
      "count": 40,
      "max": [
        12.531588554382324,
        17.995244979858398,
        0.061885122209787369
      ],
      "min": [
        -12.531588554382324,
        13.859031677246094,
        -0.0500030517578125
      ],
      "type": "VEC3"
    },
    {
      "bufferView": 2,
      "byteOffset": 1632,
      "componentType": 5126,
      "count": 40,
      "max": [
        1,
        1,
        1
      ],
      "min": [
        -1,
        -1,
        -1
      ],
      "type": "VEC3"
    },
    {
      "bufferView": 3,
      "byteOffset": 768,
      "componentType": 5126,
      "count": 40,
      "max": [
        0.99956142902374268,
        4.3348078179406002e-05,
        1,
        1
      ],
      "min": [
        -0.99956142902374268,
        -0.029616843909025192,
        -1,
        -1
      ],
      "type": "VEC4"
    },
    {
      "bufferView": 1,
      "byteOffset": 1536,
      "componentType": 5126,
      "count": 40,
      "max": [
        0.94799149036407471,
        3.0063176155090332
      ],
      "min": [
        -0.014242261648178101,
        -2.0063176155090332
      ],
      "type": "VEC2"
    },
    {
      "bufferView": 1,
      "byteOffset": 1856,
      "componentType": 5126,
      "count": 40,
      "max": [
        0.94799149036407471,
        3.0063176155090332
      ],
      "min": [
        -0.014242261648178101,
        -2.0063176155090332
      ],
      "type": "VEC2"
    },
    {
      "bufferView": 1,
      "byteOffset": 2176,
      "componentType": 5126,
      "count": 40,
      "max": [
        0.94799149036407471,
        3.0063176155090332
      ],
      "min": [
        -0.014242261648178101,
        -2.0063176155090332
      ],
      "type": "VEC2"
    },
    {
      "bufferView": 1,
      "byteOffset": 2496,
      "componentType": 5126,
      "count": 40,
      "max": [
        0.94799149036407471,
        3.0063176155090332
      ],
      "min": [
        -0.014242261648178101,
        -2.0063176155090332
      ],
      "type": "VEC2"
    },
    {
      "bufferView": 0,
      "byteOffset": 288,
      "componentType": 5125,
      "count": 60,
      "max": [
        39
      ],
      "min": [
        0
      ],
      "type": "SCALAR"
    },
    {
      "bufferView": 2,
      "byteOffset": 2112,
      "componentType": 5126,
      "count": 20,
      "max": [
        12.334175109863281,
        0.050000004470348358,
        1.8944427967071533
      ],
      "min": [
        -12.334175109863281,
        -0.050000004470348358,
        -1.8944427967071533
      ],
      "type": "VEC3"
    },
    {
      "bufferView": 2,
      "byteOffset": 2352,
      "componentType": 5126,
      "count": 20,
      "max": [
        1,
        1,
        1
      ],
      "min": [
        -1,
        0,
        -1
      ],
      "type": "VEC3"
    },
    {
      "bufferView": 3,
      "byteOffset": 1408,
      "componentType": 5126,
      "count": 20,
      "max": [
        0,
        0,
        0,
        1
      ],
      "min": [
        0,
        0,
        -1,
        1
      ],
      "type": "VEC4"
    },
    {
      "bufferView": 1,
      "byteOffset": 2816,
      "componentType": 5126,
      "count": 20,
      "max": [
        0.85043162107467651,
        0.96919131278991699
      ],
      "min": [
        0.66789364814758301,
        0.2796475887298584
      ],
      "type": "VEC2"
    },
    {
      "bufferView": 1,
      "byteOffset": 2976,
      "componentType": 5126,
      "count": 20,
      "max": [
        0.85043162107467651,
        0.96919131278991699
      ],
      "min": [
        0.66789364814758301,
        0.2796475887298584
      ],
      "type": "VEC2"
    },
    {
      "bufferView": 1,
      "byteOffset": 3136,
      "componentType": 5126,
      "count": 20,
      "max": [
        0.85043162107467651,
        0.96919131278991699
      ],
      "min": [
        0.66789364814758301,
        0.2796475887298584
      ],
      "type": "VEC2"
    },
    {
      "bufferView": 1,
      "byteOffset": 3296,
      "componentType": 5126,
      "count": 20,
      "max": [
        0.85043162107467651,
        0.96919131278991699
      ],
      "min": [
        0.66789364814758301,
        0.2796475887298584
      ],
      "type": "VEC2"
    },
    {
      "bufferView": 0,
      "byteOffset": 528,
      "componentType": 5125,
      "count": 30,
      "max": [
        19
      ],
      "min": [
        0
      ],
      "type": "SCALAR"
    },
    {
      "bufferView": 2,
      "byteOffset": 2592,
      "componentType": 5126,
      "count": 7942,
      "max": [
        12.816564559936523,
        0.5651964545249939,
        14.31268310546875
      ],
      "min": [
        -13.202095031738281,
        -3.5340194702148438,
        -13.908231735229492
      ],
      "type": "VEC3"
    },
    {
      "bufferView": 2,
      "byteOffset": 97896,
      "componentType": 5126,
      "count": 7942,
      "max": [
        0.99999707937240601,
        0.99624025821685791,
        0.99869120121002197
      ],
      "min": [
        -0.99997156858444214,
        -1,
        -0.86940664052963257
      ],
      "type": "VEC3"
    },
    {
      "bufferView": 3,
      "byteOffset": 1728,
      "componentType": 5126,
      "count": 7942,
      "max": [
        0.99999815225601196,
        0.99990659952163696,
        0.98633456230163574,
        1
      ],
      "min": [
        -0.031850531697273254,
        -0.99993783235549927,
        -1,
        -1
      ],
      "type": "VEC4"
    },
    {
      "bufferView": 1,
      "byteOffset": 3456,
      "componentType": 5126,
      "count": 7942,
      "max": [
        0.99478006362915039,
        0.96919131278991699
      ],
      "min": [
        0.0048901345580816269,
        0.26896566152572632
      ],
      "type": "VEC2"
    },
    {
      "bufferView": 0,
      "byteOffset": 648,
      "componentType": 5125,
      "count": 46086,
      "max": [
        7941
      ],
      "min": [
        0
      ],
      "type": "SCALAR"
    },
    {
      "bufferView": 2,
      "byteOffset": 193200,
      "componentType": 5126,
      "count": 3332,
      "max": [
        12.655122756958008,
        0.56602531671524048,
        14.352002143859863
      ],
      "min": [
        -13.11561107635498,
        -0.8249441385269165,
        -13.930323600769043
      ],
      "type": "VEC3"
    },
    {
      "bufferView": 2,
      "byteOffset": 233184,
      "componentType": 5126,
      "count": 3332,
      "max": [
        0.79230046272277832,
        0.99983912706375122,
        0.99999701976776123
      ],
      "min": [
        -0.87270927429199219,
        -0.9438444972038269,
        -0.99995458126068115
      ],
      "type": "VEC3"
    },
    {
      "bufferView": 3,
      "byteOffset": 128800,
      "componentType": 5126,
      "count": 3332,
      "max": [
        0.99999982118606567,
        0.98371326923370361,
        0.50877708196640015,
        1
      ],
      "min": [
        0.10019624978303909,
        -0.98426163196563721,
        -0.57974588871002197,
        -1
      ],
      "type": "VEC4"
    },
    {
      "bufferView": 1,
      "byteOffset": 66992,
      "componentType": 5126,
      "count": 3332,
      "max": [
        0.993236243724823,
        0.73322033882141113
      ],
      "min": [
        0.005674418993294239,
        0.2672080397605896
      ],
      "type": "VEC2"
    },
    {
      "bufferView": 0,
      "byteOffset": 184992,
      "componentType": 5125,
      "count": 18432,
      "max": [
        3331
      ],
      "min": [
        0
      ],
      "type": "SCALAR"
    },
    {
      "bufferView": 2,
      "byteOffset": 273168,
      "componentType": 5126,
      "count": 4802,
      "max": [
        12.787182807922363,
        1.8233557939529419,
        14.312036514282227
      ],
      "min": [
        -13.182584762573242,
        -1.461198091506958,
        -13.908181190490723
      ],
      "type": "VEC3"
    },
    {
      "bufferView": 2,
      "byteOffset": 330792,
      "componentType": 5126,
      "count": 4802,
      "max": [
        0.84659391641616821,
        0.99998927116394043,
        0.9180942177772522
      ],
      "min": [
        -0.96940648555755615,
        0.24452067911624908,
        -0.90853655338287354
      ],
      "type": "VEC3"
    },
    {
      "bufferView": 3,
      "byteOffset": 182112,
      "componentType": 5126,
      "count": 4802,
      "max": [
        0.99999988079071045,
        0.9670027494430542,
        0.33706283569335938,
        1
      ],
      "min": [
        0.24542774260044098,
        -0.88591521978378296,
        -0.76616650819778442,
        1
      ],
      "type": "VEC4"
    },
    {
      "bufferView": 1,
      "byteOffset": 93648,
      "componentType": 5126,
      "count": 4802,
      "max": [
        0.99329465627670288,
        0.73239362239837646
      ],
      "min": [
        0.0056865084916353226,
        0.26896697282791138
      ],
      "type": "VEC2"
    },
    {
      "bufferView": 1,
      "byteOffset": 132064,
      "componentType": 5126,
      "count": 4802,
      "max": [
        0.99329465627670288,
        0.73239362239837646
      ],
      "min": [
        0.0056865084916353226,
        0.26896697282791138
      ],
      "type": "VEC2"
    },
    {
      "bufferView": 1,
      "byteOffset": 170480,
      "componentType": 5126,
      "count": 4802,
      "max": [
        0.99329465627670288,
        0.73239362239837646
      ],
      "min": [
        0.0056865084916353226,
        0.26896697282791138
      ],
      "type": "VEC2"
    },
    {
      "bufferView": 1,
      "byteOffset": 208896,
      "componentType": 5126,
      "count": 4802,
      "max": [
        0.99329465627670288,
        0.73239362239837646
      ],
      "min": [
        0.0056865084916353226,
        0.26896697282791138
      ],
      "type": "VEC2"
    },
    {
      "bufferView": 0,
      "byteOffset": 258720,
      "componentType": 5125,
      "count": 27648,
      "max": [
        4801
      ],
      "min": [
        0
      ],
      "type": "SCALAR"
    }
  ],
  "asset": {
    "extras": {
      "author": "GamerSmurf64 (https://sketchfab.com/GamerSmurf64)",
      "license": "CC-BY-4.0 (http://creativecommons.org/licenses/by/4.0/)",
      "source": "https://sketchfab.com/models/0c5fdd8c3c7746f9a564c3462fd65529",
      "title": "Mario Kart Finish Line"
    },
    "generator": "Sketchfab-4.9.0",
    "version": "2.0"
  },
  "bufferViews": [
    {
      "buffer": 0,
      "byteLength": 369312,
      "byteOffset": 0,
      "name": "floatBufferViews",
      "target": 34963
    },
    {
      "buffer": 0,
      "byteLength": 247312,
      "byteOffset": 369312,
      "byteStride": 8,
      "name": "floatBufferViews",
      "target": 34962
    },
    {
      "buffer": 0,
      "byteLength": 388416,
      "byteOffset": 616624,
      "byteStride": 12,
      "name": "floatBufferViews",
      "target": 34962
    },
    {
      "buffer": 0,
      "byteLength": 258944,
      "byteOffset": 1005040,
      "byteStride": 16,
      "name": "floatBufferViews",
      "target": 34962
    }
  ],
  "buffers": [
    {
      "byteLength": 1263984,
      "uri": "scene.bin"
    }
  ],
  "images": [
    {
      "uri": "textures/Pole_metallicRoughness.png"
    },
    {
      "uri": "textures/Pole_normal.png"
    },
    {
      "uri": "textures/Pole_baseColor.png"
    },
    {
      "uri": "textures/Road_metallicRoughness.png"
    },
    {
      "uri": "textures/Road_normal.png"
    },
    {
      "uri": "textures/Road_baseColor.jpeg"
    },
    {
      "uri": "textures/Sign_metallicRoughness.png"
    },
    {
      "uri": "textures/Sign_normal.png"
    },
    {
      "uri": "textures/Sign_baseColor.png"
    },
    {
      "uri": "textures/Finish_Line_metallicRoughness.png"
    },
    {
      "uri": "textures/Finish_Line_normal.png"
    },
    {
      "uri": "textures/Finish_Line_baseColor.png"
    }
  ],
  "materials": [
    {
      "doubleSided": true,
      "name": "Pole",
      "normalTexture": {
        "index": 1,
        "scale": 1,
        "texCoord": 0
      },
      "pbrMetallicRoughness": {
        "baseColorFactor": [
          1,
          1,
          1,
          1
        ],
        "baseColorTexture": {
          "index": 2,
          "texCoord": 0
        },
        "metallicFactor": 1,
        "metallicRoughnessTexture": {
          "index": 0,
          "texCoord": 0
        },
        "roughnessFactor": 1
      }
    },
    {
      "doubleSided": true,
      "name": "Sign",
      "normalTexture": {
        "index": 7,
        "scale": 1,
        "texCoord": 0
      },
      "pbrMetallicRoughness": {
        "baseColorFactor": [
          1,
          1,
          1,
          1
        ],
        "baseColorTexture": {
          "index": 8,
          "texCoord": 0
        },
        "metallicFactor": 1,
        "metallicRoughnessTexture": {
          "index": 6,
          "texCoord": 0
        },
        "roughnessFactor": 1
      }
    },
    {
      "doubleSided": true,
      "name": "Finish_Line",
      "normalTexture": {
        "index": 10,
        "scale": 1,
        "texCoord": 0
      },
      "pbrMetallicRoughness": {
        "baseColorFactor": [
          1,
          1,
          1,
          1
        ],
        "baseColorTexture": {
          "index": 11,
          "texCoord": 0
        },
        "metallicFactor": 1,
        "metallicRoughnessTexture": {
          "index": 9,
          "texCoord": 0
        },
        "roughnessFactor": 1
      }
    },
    {
      "doubleSided": true,
      "emissiveFactor": [
        0,
        0,
        0
      ],
      "name": "Filler",
      "pbrMetallicRoughness": {
        "baseColorFactor": [
          0.222,
          0.096085199999999996,
          0.017316000000000002,
          1
        ],
        "metallicFactor": 0,
        "roughnessFactor": 0.92074838159999994
      }
    },
    {
      "doubleSided": true,
      "emissiveFactor": [
        0,
        0,
        0
      ],
      "name": "lambert1",
      "pbrMetallicRoughness": {
        "baseColorFactor": [
          0.5,
          0.5,
          0.5,
          1
        ],
        "metallicFactor": 0,
        "roughnessFactor": 0.59999999999999998
      }
    },
    {
      "doubleSided": true,
      "name": "Road",
      "normalTexture": {
        "index": 4,
        "scale": 1,
        "texCoord": 0
      },
      "pbrMetallicRoughness": {
        "baseColorFactor": [
          1,
          1,
          1,
          1
        ],
        "baseColorTexture": {
          "index": 5,
          "texCoord": 0
        },
        "metallicFactor": 1,
        "metallicRoughnessTexture": {
          "index": 3,
          "texCoord": 0
        },
        "roughnessFactor": 1
      }
    }
  ],
  "meshes": [
    {
      "name": "Model_Pole_0",
      "primitives": [
        {
          "attributes": {
            "NORMAL": 1,
            "POSITION": 0,
            "TANGENT": 2,
            "TEXCOORD_0": 3,
            "TEXCOORD_1": 4,
            "TEXCOORD_2": 5,
            "TEXCOORD_3": 6
          },
          "indices": 7,
          "material": 0,
          "mode": 4
        }
      ]
    },
    {
      "name": "Model_Sign_0",
      "primitives": [
        {
          "attributes": {
            "NORMAL": 9,
            "POSITION": 8,
            "TANGENT": 10,
            "TEXCOORD_0": 11,
            "TEXCOORD_1": 12,
            "TEXCOORD_2": 13,
            "TEXCOORD_3": 14
          },
          "indices": 15,
          "material": 1,
          "mode": 4
        }
      ]
    },
    {
      "name": "Model_Finish_Line_0",
      "primitives": [
        {
          "attributes": {
            "NORMAL": 17,
            "POSITION": 16,
            "TANGENT": 18,
            "TEXCOORD_0": 19,
            "TEXCOORD_1": 20,
            "TEXCOORD_2": 21,
            "TEXCOORD_3": 22
          },
          "indices": 23,
          "material": 2,
          "mode": 4
        }
      ]
    },
    {
      "name": "Model_Filler_0",
      "primitives": [
        {
          "attributes": {
            "NORMAL": 25,
            "POSITION": 24,
            "TANGENT": 26,
            "TEXCOORD_0": 27
          },
          "indices": 28,
          "material": 3,
          "mode": 4
        }
      ]
    },
    {
      "name": "Model_lambert1_0",
      "primitives": [
        {
          "attributes": {
            "NORMAL": 30,
            "POSITION": 29,
            "TANGENT": 31,
            "TEXCOORD_0": 32
          },
          "indices": 33,
          "material": 4,
          "mode": 4
        }
      ]
    },
    {
      "name": "Model_Road_0",
      "primitives": [
        {
          "attributes": {
            "NORMAL": 35,
            "POSITION": 34,
            "TANGENT": 36,
            "TEXCOORD_0": 37,
            "TEXCOORD_1": 38,
            "TEXCOORD_2": 39,
            "TEXCOORD_3": 40
          },
          "indices": 41,
          "material": 5,
          "mode": 4
        }
      ]
    }
  ],
  "nodes": [
    {
      "children": [
        1
      ],
      "name": "RootNode (gltf orientation matrix)",
      "rotation": [
        -0.70710678118654746,
        -0,
        -0,
        0.70710678118654757
      ]
    },
    {
      "children": [
        2
      ],
      "name": "RootNode (model correction matrix)"
    },
    {
      "children": [
        3
      ],
      "matrix": [
        1,
        0,
        0,
        0,
        0,
        0,
        1,
        0,
        0,
        -1,
        0,
        0,
        0,
        0,
        0,
        1
      ],
      "name": "b6bcb78613ca49efa35724d28c0a9205.fbx"
    },
    {
      "children": [
        4
      ],
      "name": "RootNode"
    },
    {
      "children": [
        5,
        6,
        7,
        8,
        9,
        10
      ],
      "name": "Model"
    },
    {
      "mesh": 0,
      "name": "Model_Pole_0"
    },
    {
      "mesh": 1,
      "name": "Model_Sign_0"
    },
    {
      "mesh": 2,
      "name": "Model_Finish_Line_0"
    },
    {
      "mesh": 3,
      "name": "Model_Filler_0"
    },
    {
      "mesh": 4,
      "name": "Model_lambert1_0"
    },
    {
      "mesh": 5,
      "name": "Model_Road_0"
    }
  ],
  "samplers": [
    {
      "magFilter": 9729,
      "minFilter": 9987,
      "wrapS": 10497,
      "wrapT": 10497
    }
  ],
  "scene": 0,
  "scenes": [
    {
      "name": "OSG_Scene",
      "nodes": [
        0
      ]
    }
  ],
  "textures": [
    {
      "sampler": 0,
      "source": 0
    },
    {
      "sampler": 0,
      "source": 1
    },
    {
      "sampler": 0,
      "source": 2
    },
    {
      "sampler": 0,
      "source": 3
    },
    {
      "sampler": 0,
      "source": 4
    },
    {
      "sampler": 0,
      "source": 5
    },
    {
      "sampler": 0,
      "source": 6
    },
    {
      "sampler": 0,
      "source": 7
    },
    {
      "sampler": 0,
      "source": 8
    },
    {
      "sampler": 0,
      "source": 9
    },
    {
      "sampler": 0,
      "source": 10
    },
    {
      "sampler": 0,
      "source": 11
    }
  ]
}

