{
  "accessors": [
    {
      "bufferView": 2,
      "componentType": 5126,
      "count": 880,
      "max": [
        3.14125657081604,
        0.25720688700675964,
        3.1379795074462891
      ],
      "min": [
        -3.121591329574585,
        -0.015225857496261597,
        -3.1248688697814941
      ],
      "type": "VEC3"
    },
    {
      "bufferView": 2,
      "byteOffset": 10560,
      "componentType": 5126,
      "count": 880,
      "max": [
        0.95490717887878418,
        0.44234386086463928,
        0.95490717887878418
      ],
      "min": [
        -0.95490717887878418,
        -0.99990582466125488,
        -0.95490717887878418
      ],
      "type": "VEC3"
    },
    {
      "bufferView": 0,
      "componentType": 5125,
      "count": 5268,
      "max": [
        879
      ],
      "min": [
        0
      ],
      "type": "SCALAR"
    },
    {
      "bufferView": 2,
      "byteOffset": 21120,
      "componentType": 5126,
      "count": 1357,
      "max": [
        0.43672648072242737,
        1.2583142518997192,
        0.44202274084091187
      ],
      "min": [
        -0.45454001426696777,
        0.19666381180286407,
        -0.4492436945438385
      ],
      "type": "VEC3"
    },
    {
      "bufferView": 2,
      "byteOffset": 37404,
      "componentType": 5126,
      "count": 1357,
      "max": [
        0.99944758415222168,
        1,
        0.99944758415222168
      ],
      "min": [
        -0.99944758415222168,
        -0.99882215261459351,
        -0.99944758415222168
      ],
      "type": "VEC3"
    },
    {
      "bufferView": 1,
      "componentType": 5126,
      "count": 1357,
      "max": [
        0,
        1
      ],
      "min": [
        0,
        1
      ],
      "type": "VEC2"
    },
    {
      "bufferView": 0,
      "byteOffset": 21072,
      "componentType": 5125,
      "count": 8130,
      "max": [
        1356
      ],
      "min": [
        0
      ],
      "type": "SCALAR"
    },
    {
      "bufferView": 2,
      "byteOffset": 53688,
      "componentType": 5126,
      "count": 2996,
      "max": [
        0.54886627197265625,
        1.8587847948074341,
        0.52227777242660522
      ],
      "min": [
        -0.31257468461990356,
        0.40939635038375854,
        -0.61638796329498291
      ],
      "type": "VEC3"
    },
    {
      "bufferView": 2,
      "byteOffset": 89640,
      "componentType": 5126,
      "count": 2996,
      "max": [
        0.99978029727935791,
        0.99923717975616455,
        0.99971044063568115
      ],
      "min": [
        -0.99989783763885498,
        -0.99923813343048096,
        -0.99946475028991699
      ],
      "type": "VEC3"
    },
    {
      "bufferView": 1,
      "byteOffset": 10856,
      "componentType": 5126,
      "count": 2996,
      "max": [
        0,
        1
      ],
      "min": [
        0,
        1
      ],
      "type": "VEC2"
    },
    {
      "bufferView": 0,
      "byteOffset": 53592,
      "componentType": 5125,
      "count": 17544,
      "max": [
        2995
      ],
      "min": [
        0
      ],
      "type": "SCALAR"
    },
    {
      "bufferView": 2,
      "byteOffset": 125592,
      "componentType": 5126,
      "count": 1116,
      "max": [
        1.3041770458221436,
        1.9242254495620728,
        -0.059645984321832657
      ],
      "min": [
        0.28097221255302429,
        0.90094870328903198,
        -1.0840423107147217
      ],
      "type": "VEC3"
    },
    {
      "bufferView": 2,
      "byteOffset": 138984,
      "componentType": 5126,
      "count": 1116,
      "max": [
        0.99944758415222168,
        1,
        0.99944758415222168
      ],
      "min": [
        -0.99944758415222168,
        -1,
        -0.99944758415222168
      ],
      "type": "VEC3"
    },
    {
      "bufferView": 1,
      "byteOffset": 34824,
      "componentType": 5126,
      "count": 1116,
      "max": [
        1,
        1
      ],
      "min": [
        0,
        5.9604644775390625e-08
      ],
      "type": "VEC2"
    },
    {
      "bufferView": 0,
      "byteOffset": 123768,
      "componentType": 5125,
      "count": 4938,
      "max": [
        1115
      ],
      "min": [
        0
      ],
      "type": "SCALAR"
    },
    {
      "bufferView": 2,
      "byteOffset": 152376,
      "componentType": 5126,
      "count": 847,
      "max": [
        1.3041770458221436,
        1.4742467403411865,
        -0.087980620563030243
      ],
      "min": [
        0.46455025672912598,
        0.90094870328903198,
        -1.0840423107147217
      ],
      "type": "VEC3"
    },
    {
      "bufferView": 2,
      "byteOffset": 162540,
      "componentType": 5126,
      "count": 847,
      "max": [
        0.99878436326980591,
        0.9918702244758606,
        0.99955129623413086
      ],
      "min": [
        -0.98533535003662109,
        -1,
        -0.99296951293945312
      ],
      "type": "VEC3"
    },
    {
      "bufferView": 1,
      "byteOffset": 43752,
      "componentType": 5126,
      "count": 847,
      "max": [
        1,
        1
      ],
      "min": [
        0,
        0
      ],
      "type": "VEC2"
    },
    {
      "bufferView": 0,
      "byteOffset": 143520,
      "componentType": 5125,
      "count": 2574,
      "max": [
        846
      ],
      "min": [
        0
      ],
      "type": "SCALAR"
    }
  ],
  "asset": {
    "extras": {
      "author": "XtremeZero (https://sketchfab.com/mohammedzero43)",
      "license": "CC-BY-4.0 (http://creativecommons.org/licenses/by/4.0/)",
      "source": "https://sketchfab.com/3d-models/piranha-in-pipe-mario-f9634aa2a8f64c5f901118e496723429",
      "title": "Piranha in pipe - Mario"
    },
    "generator": "Sketchfab-8.20.0",
    "version": "2.0"
  },
  "bufferViews": [
    {
      "buffer": 0,
      "byteLength": 153816,
      "byteOffset": 0,
      "name": "floatBufferViews",
      "target": 34963
    },
    {
      "buffer": 0,
      "byteLength": 50528,
      "byteOffset": 153816,
      "byteStride": 8,
      "name": "floatBufferViews",
      "target": 34962
    },
    {
      "buffer": 0,
      "byteLength": 172704,
      "byteOffset": 204344,
      "byteStride": 12,
      "name": "floatBufferViews",
      "target": 34962
    }
  ],
  "buffers": [
    {
      "byteLength": 377048,
      "uri": "scene.bin"
    }
  ],
  "images": [
    {
      "uri": "textures/material_baseColor.png"
    }
  ],
  "materials": [
    {
      "doubleSided": true,
      "emissiveFactor": [
        0,
        0,
        0
      ],
      "name": "Material.004",
      "pbrMetallicRoughness": {
        "baseColorFactor": [
          0.28830399999999989,
          0.72453299999999987,
          0.030712999999999963,
          1
        ],
        "metallicFactor": 0,
        "roughnessFactor": 0
      }
    },
    {
      "doubleSided": true,
      "emissiveFactor": [
        0,
        0,
        0
      ],
      "name": "Material",
      "pbrMetallicRoughness": {
        "baseColorFactor": [
          0.030533999999999999,
          0.80000000000000004,
          0,
          1
        ],
        "metallicFactor": 0,
        "roughnessFactor": 0.5
      }
    },
    {
      "doubleSided": true,
      "emissiveFactor": [
        0,
        0,
        0
      ],
      "name": "Material.001",
      "pbrMetallicRoughness": {
        "baseColorFactor": [
          0.0084450000000000219,
          0.35055500000000001,
          0,
          1
        ],
        "metallicFactor": 0,
        "roughnessFactor": 0.5
      }
    },
    {
      "doubleSided": true,
      "emissiveFactor": [
        0,
        0,
        0
      ],
      "name": "material",
      "pbrMetallicRoughness": {
        "baseColorFactor": [
          1,
          1,
          1,
          1
        ],
        "baseColorTexture": {
          "index": 0,
          "texCoord": 0
        },
        "metallicFactor": 0,
        "roughnessFactor": 0.5
      }
    },
    {
      "doubleSided": true,
      "emissiveFactor": [
        0,
        0,
        0
      ],
      "name": "material_4",
      "pbrMetallicRoughness": {
        "baseColorFactor": [
          0.80000000000000004,
          0.80000000000000004,
          0.80000000000000004,
          1
        ],
        "metallicFactor": 0,
        "roughnessFactor": 0.5
      }
    }
  ],
  "meshes": [
    {
      "primitives": [
        {
          "attributes": {
            "NORMAL": 1,
            "POSITION": 0
          },
          "indices": 2,
          "material": 0,
          "mode": 4
        }
      ]
    },
    {
      "primitives": [
        {
          "attributes": {
            "NORMAL": 4,
            "POSITION": 3,
            "TEXCOORD_0": 5
          },
          "indices": 6,
          "material": 1,
          "mode": 4
        }
      ]
    },
    {
      "primitives": [
        {
          "attributes": {
            "NORMAL": 8,
            "POSITION": 7,
            "TEXCOORD_0": 9
          },
          "indices": 10,
          "material": 2,
          "mode": 4
        }
      ]
    },
    {
      "primitives": [
        {
          "attributes": {
            "NORMAL": 12,
            "POSITION": 11,
            "TEXCOORD_0": 13
          },
          "indices": 14,
          "material": 3,
          "mode": 4
        }
      ]
    },
    {
      "primitives": [
        {
          "attributes": {
            "NORMAL": 16,
            "POSITION": 15,
            "TEXCOORD_0": 17
          },
          "indices": 18,
          "material": 4,
          "mode": 4
        }
      ]
    }
  ],
  "nodes": [
    {
      "children": [
        1
      ],
      "name": "RootNode (gltf orientation matrix)",
      "rotation": [
        -0.70710678118654746,
        -0,
        -0,
        0.70710678118654757
      ]
    },
    {
      "children": [
        2
      ],
      "name": "RootNode (model correction matrix)"
    },
    {
      "children": [
        3
      ],
      "name": "root"
    },
    {
      "children": [
        4,
        6
      ],
      "matrix": [
        1,
        0,
        0,
        0,
        0,
        2.2204460492503131e-16,
        1,
        0,
        0,
        -1,
        2.2204460492503131e-16,
        0,
        0,
        0,
        0,
        1
      ],
      "name": "GLTF_SceneRootNode"
    },
    {
      "children": [
        5
      ],
      "name": "Plane.002_0"
    },
    {
      "mesh": 0,
      "name": ""
    },
    {
      "children": [
        7,
        8,
        9,
        10
      ],
      "name": "Circle_1"
    },
    {
      "mesh": 1,
      "name": ""
    },
    {
      "mesh": 2,
      "name": ""
    },
    {
      "mesh": 3,
      "name": ""
    },
    {
      "mesh": 4,
      "name": ""
    }
  ],
  "samplers": [
    {
      "magFilter": 9729,
      "minFilter": 9987,
      "wrapS": 10497,
      "wrapT": 10497
    }
  ],
  "scene": 0,
  "scenes": [
    {
      "name": "OSG_Scene",
      "nodes": [
        0
      ]
    }
  ],
  "textures": [
    {
      "sampler": 0,
      "source": 0
    }
  ]
}

