{
  "accessors": [
    {
      "bufferView": 2,
      "componentType": 5126,
      "count": 305,
      "max": [
        0.65117597579956055,
        -0.24809899926185608,
        -0.1383419930934906
      ],
      "min": [
        0.56359297037124634,
        -0.53530502319335938,
        -0.22081500291824341
      ],
      "type": "VEC3"
    },
    {
      "bufferView": 2,
      "byteOffset": 3660,
      "componentType": 5126,
      "count": 305,
      "max": [
        0.99996888637542725,
        0.99802678823471069,
        1
      ],
      "min": [
        -0.999961256980896,
        -0.99802678823471069,
        -1
      ],
      "type": "VEC3"
    },
    {
      "bufferView": 3,
      "componentType": 5126,
      "count": 305,
      "max": [
        0.99931198358535767,
        0.99996101856231689,
        1,
        1
      ],
      "min": [
        -0.84846699237823486,
        -0.99232602119445801,
        -1,
        1
      ],
      "type": "VEC4"
    },
    {
      "bufferView": 1,
      "componentType": 5126,
      "count": 305,
      "max": [
        0.875,
        1
      ],
      "min": [
        0.125,
        0
      ],
      "type": "VEC2"
    },
    {
      "bufferView": 0,
      "componentType": 5125,
      "count": 1536,
      "max": [
        304
      ],
      "min": [
        0
      ],
      "type": "SCALAR"
    },
    {
      "bufferView": 2,
      "byteOffset": 7320,
      "componentType": 5126,
      "count": 253,
      "max": [
        0.66017997264862061,
        0.15314699709415436,
        0.56795197725296021
      ],
      "min": [
        -0.47572401165962219,
        -0.94147598743438721,
        -0.56795197725296021
      ],
      "type": "VEC3"
    },
    {
      "bufferView": 2,
      "byteOffset": 10356,
      "componentType": 5126,
      "count": 253,
      "max": [
        0.99989914894104004,
        1,
        0.99989914894104004
      ],
      "min": [
        -0.99989914894104004,
        -1,
        -0.99989914894104004
      ],
      "type": "VEC3"
    },
    {
      "bufferView": 3,
      "byteOffset": 4880,
      "componentType": 5126,
      "count": 253,
      "max": [
        0.90899699926376343,
        0.38973000645637512,
        0.94830900430679321,
        1
      ],
      "min": [
        -0.99799597263336182,
        -0.99962401390075684,
        -0.99994397163391113,
        1
      ],
      "type": "VEC4"
    },
    {
      "bufferView": 1,
      "byteOffset": 2440,
      "componentType": 5126,
      "count": 253,
      "max": [
        1,
        0.74330902099609375
      ],
      "min": [
        0,
        0
      ],
      "type": "VEC2"
    },
    {
      "bufferView": 0,
      "byteOffset": 6144,
      "componentType": 5125,
      "count": 1344,
      "max": [
        252
      ],
      "min": [
        0
      ],
      "type": "SCALAR"
    },
    {
      "bufferView": 2,
      "byteOffset": 13392,
      "componentType": 5126,
      "count": 1627,
      "max": [
        0.98890900611877441,
        0.94147598743438721,
        1
      ],
      "min": [
        -0.98890900611877441,
        -0.60052597522735596,
        -1
      ],
      "type": "VEC3"
    },
    {
      "bufferView": 2,
      "byteOffset": 32916,
      "componentType": 5126,
      "count": 1627,
      "max": [
        0.99877774715423584,
        0.99984389543533325,
        0.99888575077056885
      ],
      "min": [
        -0.99866050481796265,
        -0.9993709921836853,
        -0.99888575077056885
      ],
      "type": "VEC3"
    },
    {
      "bufferView": 3,
      "byteOffset": 8928,
      "componentType": 5126,
      "count": 1627,
      "max": [
        0.95764297246932983,
        0.48446398973464966,
        0.99918699264526367,
        1
      ],
      "min": [
        -0.98712801933288574,
        -0.69444501399993896,
        -0.99928998947143555,
        1
      ],
      "type": "VEC4"
    },
    {
      "bufferView": 1,
      "byteOffset": 4464,
      "componentType": 5126,
      "count": 1627,
      "max": [
        0.9945639967918396,
        0.84244900941848755
      ],
      "min": [
        0.010642999783158302,
        0.012920999899506569
      ],
      "type": "VEC2"
    },
    {
      "bufferView": 0,
      "byteOffset": 11520,
      "componentType": 5125,
      "count": 9120,
      "max": [
        1626
      ],
      "min": [
        0
      ],
      "type": "SCALAR"
    },
    {
      "bufferView": 2,
      "byteOffset": 52440,
      "componentType": 5126,
      "count": 305,
      "max": [
        0.65117597579956055,
        -0.24809899926185608,
        0.21630300581455231
      ],
      "min": [
        0.56359297037124634,
        -0.53530502319335938,
        0.1338299959897995
      ],
      "type": "VEC3"
    },
    {
      "bufferView": 2,
      "byteOffset": 56100,
      "componentType": 5126,
      "count": 305,
      "max": [
        0.99996888637542725,
        0.99802678823471069,
        1
      ],
      "min": [
        -0.999961256980896,
        -0.99802678823471069,
        -1
      ],
      "type": "VEC3"
    },
    {
      "bufferView": 3,
      "byteOffset": 34960,
      "componentType": 5126,
      "count": 305,
      "max": [
        0.99931198358535767,
        0.99996101856231689,
        1,
        1
      ],
      "min": [
        -0.84846699237823486,
        -0.99232602119445801,
        -1,
        1
      ],
      "type": "VEC4"
    },
    {
      "bufferView": 1,
      "byteOffset": 17480,
      "componentType": 5126,
      "count": 305,
      "max": [
        0.875,
        1
      ],
      "min": [
        0.125,
        0
      ],
      "type": "VEC2"
    },
    {
      "bufferView": 0,
      "byteOffset": 48000,
      "componentType": 5125,
      "count": 1536,
      "max": [
        304
      ],
      "min": [
        0
      ],
      "type": "SCALAR"
    }
  ],
  "asset": {
    "extras": {
      "author": "Anwar Ali (https://sketchfab.com/Anwarali)",
      "license": "CC-BY-4.0 (http://creativecommons.org/licenses/by/4.0/)",
      "source": "https://sketchfab.com/models/1bd1720613e44292a5a70119d4c1a254",
      "title": "Power-Up Mushroom"
    },
    "generator": "Sketchfab-3.19.4",
    "version": "2.0"
  },
  "bufferViews": [
    {
      "buffer": 0,
      "byteLength": 54144,
      "byteOffset": 0,
      "name": "floatBufferViews",
      "target": 34963
    },
    {
      "buffer": 0,
      "byteLength": 19920,
      "byteOffset": 54144,
      "byteStride": 8,
      "name": "floatBufferViews",
      "target": 34962
    },
    {
      "buffer": 0,
      "byteLength": 59760,
      "byteOffset": 74064,
      "byteStride": 12,
      "name": "floatBufferViews",
      "target": 34962
    },
    {
      "buffer": 0,
      "byteLength": 39840,
      "byteOffset": 133824,
      "byteStride": 16,
      "name": "floatBufferViews",
      "target": 34962
    }
  ],
  "buffers": [
    {
      "byteLength": 173664,
      "uri": "scene.bin"
    }
  ],
  "images": [
    {
      "uri": "textures/lambert3SG_metallicRoughness.png"
    },
    {
      "uri": "textures/lambert3SG_normal.jpeg"
    },
    {
      "uri": "textures/lambert3SG_baseColor.jpeg"
    },
    {
      "uri": "textures/lambert2SG_metallicRoughness.png"
    },
    {
      "uri": "textures/lambert2SG_normal.jpeg"
    },
    {
      "uri": "textures/lambert2SG_baseColor.jpeg"
    },
    {
      "uri": "textures/lambert4SG_metallicRoughness.png"
    },
    {
      "uri": "textures/lambert4SG_normal.jpeg"
    },
    {
      "uri": "textures/lambert4SG_baseColor.jpeg"
    }
  ],
  "materials": [
    {
      "doubleSided": true,
      "emissiveFactor": [
        0,
        0,
        0
      ],
      "name": "lambert4SG",
      "normalTexture": {
        "index": 7,
        "scale": 1,
        "texCoord": 0
      },
      "occlusionTexture": {
        "index": 6,
        "strength": 1,
        "texCoord": 0
      },
      "pbrMetallicRoughness": {
        "baseColorFactor": [
          1,
          1,
          1,
          1
        ],
        "baseColorTexture": {
          "index": 8,
          "texCoord": 0
        },
        "metallicFactor": 1,
        "metallicRoughnessTexture": {
          "index": 6,
          "texCoord": 0
        },
        "roughnessFactor": 1
      }
    },
    {
      "doubleSided": true,
      "emissiveFactor": [
        0,
        0,
        0
      ],
      "name": "lambert2SG",
      "normalTexture": {
        "index": 4,
        "scale": 1,
        "texCoord": 0
      },
      "occlusionTexture": {
        "index": 3,
        "strength": 1,
        "texCoord": 0
      },
      "pbrMetallicRoughness": {
        "baseColorFactor": [
          1,
          1,
          1,
          1
        ],
        "baseColorTexture": {
          "index": 5,
          "texCoord": 0
        },
        "metallicFactor": 1,
        "metallicRoughnessTexture": {
          "index": 3,
          "texCoord": 0
        },
        "roughnessFactor": 1
      }
    },
    {
      "doubleSided": true,
      "emissiveFactor": [
        0,
        0,
        0
      ],
      "name": "lambert3SG",
      "normalTexture": {
        "index": 1,
        "scale": 1,
        "texCoord": 0
      },
      "occlusionTexture": {
        "index": 0,
        "strength": 1,
        "texCoord": 0
      },
      "pbrMetallicRoughness": {
        "baseColorFactor": [
          1,
          1,
          1,
          1
        ],
        "baseColorTexture": {
          "index": 2,
          "texCoord": 0
        },
        "metallicFactor": 1,
        "metallicRoughnessTexture": {
          "index": 0,
          "texCoord": 0
        },
        "roughnessFactor": 1
      }
    }
  ],
  "meshes": [
    {
      "name": "defaultMaterial",
      "primitives": [
        {
          "attributes": {
            "NORMAL": 1,
            "POSITION": 0,
            "TANGENT": 2,
            "TEXCOORD_0": 3
          },
          "indices": 4,
          "material": 0,
          "mode": 4
        }
      ]
    },
    {
      "name": "defaultMaterial",
      "primitives": [
        {
          "attributes": {
            "NORMAL": 6,
            "POSITION": 5,
            "TANGENT": 7,
            "TEXCOORD_0": 8
          },
          "indices": 9,
          "material": 2,
          "mode": 4
        }
      ]
    },
    {
      "name": "defaultMaterial",
      "primitives": [
        {
          "attributes": {
            "NORMAL": 11,
            "POSITION": 10,
            "TANGENT": 12,
            "TEXCOORD_0": 13
          },
          "indices": 14,
          "material": 1,
          "mode": 4
        }
      ]
    },
    {
      "name": "defaultMaterial",
      "primitives": [
        {
          "attributes": {
            "NORMAL": 16,
            "POSITION": 15,
            "TANGENT": 17,
            "TEXCOORD_0": 18
          },
          "indices": 19,
          "material": 0,
          "mode": 4
        }
      ]
    }
  ],
  "nodes": [
    {
      "children": [
        1
      ],
      "name": "RootNode (gltf orientation matrix)",
      "rotation": [
        -0.70710678118654746,
        -0,
        -0,
        0.70710678118654757
      ]
    },
    {
      "children": [
        2
      ],
      "name": "RootNode (model correction matrix)"
    },
    {
      "children": [
        3,
        5,
        7,
        9
      ],
      "matrix": [
        1,
        0,
        0,
        0,
        0,
        -4.3711390063094768e-08,
        0.999999999999999,
        0,
        0,
        -0.999999999999999,
        -4.3711390063094768e-08,
        0,
        0,
        0,
        0,
        1
      ],
      "name": "Collada visual scene group"
    },
    {
      "children": [
        4
      ],
      "name": "g"
    },
    {
      "mesh": 0,
      "name": "defaultMaterial"
    },
    {
      "children": [
        6
      ],
      "name": "g"
    },
    {
      "mesh": 1,
      "name": "defaultMaterial"
    },
    {
      "children": [
        8
      ],
      "name": "g"
    },
    {
      "mesh": 2,
      "name": "defaultMaterial"
    },
    {
      "children": [
        10
      ],
      "name": "g"
    },
    {
      "mesh": 3,
      "name": "defaultMaterial"
    }
  ],
  "samplers": [
    {
      "magFilter": 9729,
      "minFilter": 9987,
      "wrapS": 10497,
      "wrapT": 10497
    }
  ],
  "scene": 0,
  "scenes": [
    {
      "name": "OSG_Scene",
      "nodes": [
        0
      ]
    }
  ],
  "textures": [
    {
      "sampler": 0,
      "source": 0
    },
    {
      "sampler": 0,
      "source": 1
    },
    {
      "sampler": 0,
      "source": 2
    },
    {
      "sampler": 0,
      "source": 3
    },
    {
      "sampler": 0,
      "source": 4
    },
    {
      "sampler": 0,
      "source": 5
    },
    {
      "sampler": 0,
      "source": 6
    },
    {
      "sampler": 0,
      "source": 7
    },
    {
      "sampler": 0,
      "source": 8
    }
  ]
}

