{
  "accessors": [
    {
      "bufferView": 2,
      "componentType": 5126,
      "count": 54556,
      "max": [
        1601.364501953125,
        2975.765380859375,
        -2.6370058059692383
      ],
      "min": [
        -1174.53076171875,
        -960.50213623046875,
        -6.8853664398193359
      ],
      "type": "VEC3"
    },
    {
      "bufferView": 2,
      "byteOffset": 654672,
      "componentType": 5126,
      "count": 54556,
      "max": [
        1,
        1,
        1
      ],
      "min": [
        -1,
        -1,
        -1
      ],
      "type": "VEC3"
    },
    {
      "bufferView": 3,
      "componentType": 5126,
      "count": 54556,
      "max": [
        1,
        9.4747417733742623e-07,
        3.7010710052243212e-09,
        1
      ],
      "min": [
        -1,
        -2.3686854433435656e-07,
        -3.701071449313531e-09,
        -1
      ],
      "type": "VEC4"
    },
    {
      "bufferView": 1,
      "componentType": 5126,
      "count": 54556,
      "max": [
        1,
        1
      ],
      "min": [
        0,
        0
      ],
      "type": "VEC2"
    },
    {
      "bufferView": 0,
      "componentType": 5125,
      "count": 61344,
      "max": [
        54555
      ],
      "min": [
        0
      ],
      "type": "SCALAR"
    },
    {
      "bufferView": 2,
      "byteOffset": 1309344,
      "componentType": 5126,
      "count": 141,
      "max": [
        734.98919677734375,
        2343.2822265625,
        -2.3248531818389893
      ],
      "min": [
        -308.15545654296875,
        -962.30572509765625,
        -6.0536251068115234
      ],
      "type": "VEC3"
    },
    {
      "bufferView": 2,
      "byteOffset": 1311036,
      "componentType": 5126,
      "count": 141,
      "max": [
        1,
        1,
        1
      ],
      "min": [
        -1,
        -1,
        -1
      ],
      "type": "VEC3"
    },
    {
      "bufferView": 3,
      "byteOffset": 872896,
      "componentType": 5126,
      "count": 141,
      "max": [
        1,
        1,
        0.022522255778312683,
        1
      ],
      "min": [
        -1,
        -1,
        -3.7281973064295926e-09,
        -1
      ],
      "type": "VEC4"
    },
    {
      "bufferView": 1,
      "byteOffset": 436448,
      "componentType": 5126,
      "count": 141,
      "max": [
        1,
        1
      ],
      "min": [
        0,
        0
      ],
      "type": "VEC2"
    },
    {
      "bufferView": 0,
      "byteOffset": 245376,
      "componentType": 5125,
      "count": 168,
      "max": [
        140
      ],
      "min": [
        0
      ],
      "type": "SCALAR"
    },
    {
      "bufferView": 2,
      "byteOffset": 1312728,
      "componentType": 5126,
      "count": 76,
      "max": [
        1551.2845458984375,
        2668.926513671875,
        -2.9676012992858887
      ],
      "min": [
        -1124.4508056640625,
        -959.93328857421875,
        -6.4825305938720703
      ],
      "type": "VEC3"
    },
    {
      "bufferView": 2,
      "byteOffset": 1313640,
      "componentType": 5126,
      "count": 76,
      "max": [
        1,
        1,
        1
      ],
      "min": [
        -1,
        -1,
        -1
      ],
      "type": "VEC3"
    },
    {
      "bufferView": 3,
      "byteOffset": 875152,
      "componentType": 5126,
      "count": 76,
      "max": [
        1,
        0,
        0,
        1
      ],
      "min": [
        -1,
        -0.00012155190051998943,
        -1,
        -1
      ],
      "type": "VEC4"
    },
    {
      "bufferView": 1,
      "byteOffset": 437576,
      "componentType": 5126,
      "count": 76,
      "max": [
        1,
        1
      ],
      "min": [
        0,
        0
      ],
      "type": "VEC2"
    },
    {
      "bufferView": 0,
      "byteOffset": 246048,
      "componentType": 5125,
      "count": 120,
      "max": [
        75
      ],
      "min": [
        0
      ],
      "type": "SCALAR"
    }
  ],
  "asset": {
    "extras": {
      "author": "Anthony Yanez (https://sketchfab.com/paulyanez)",
      "license": "CC-BY-4.0 (http://creativecommons.org/licenses/by/4.0/)",
      "source": "https://sketchfab.com/models/f4efbf6382dd403f92babbcfa85421a7",
      "title": "Castle Small (Super Mario Bros)"
    },
    "generator": "Sketchfab-3.47.8",
    "version": "2.0"
  },
  "bufferViews": [
    {
      "buffer": 0,
      "byteLength": 246528,
      "byteOffset": 0,
      "name": "floatBufferViews",
      "target": 34963
    },
    {
      "buffer": 0,
      "byteLength": 438184,
      "byteOffset": 246528,
      "byteStride": 8,
      "name": "floatBufferViews",
      "target": 34962
    },
    {
      "buffer": 0,
      "byteLength": 1314552,
      "byteOffset": 684712,
      "byteStride": 12,
      "name": "floatBufferViews",
      "target": 34962
    },
    {
      "buffer": 0,
      "byteLength": 876368,
      "byteOffset": 1999264,
      "byteStride": 16,
      "name": "floatBufferViews",
      "target": 34962
    }
  ],
  "buffers": [
    {
      "byteLength": 2875632,
      "uri": "scene.bin"
    }
  ],
  "materials": [
    {
      "doubleSided": true,
      "emissiveFactor": [
        0,
        0,
        0
      ],
      "name": "01_-_Default",
      "pbrMetallicRoughness": {
        "baseColorFactor": [
          0.24313699999999999,
          0.078431399999999998,
          0,
          1
        ],
        "metallicFactor": 0.4382059271,
        "roughnessFactor": 0.89297135959999996
      }
    },
    {
      "doubleSided": true,
      "emissiveFactor": [
        0,
        0,
        0
      ],
      "name": "03_-_Default",
      "pbrMetallicRoughness": {
        "baseColorFactor": [
          0,
          0,
          0,
          1
        ],
        "metallicFactor": 1,
        "roughnessFactor": 0.89297135959999996
      }
    },
    {
      "doubleSided": true,
      "emissiveFactor": [
        0,
        0,
        0
      ],
      "name": "02_-_Default",
      "pbrMetallicRoughness": {
        "baseColorFactor": [
          0.0313726,
          0.0156863,
          0,
          1
        ],
        "metallicFactor": 1,
        "roughnessFactor": 0.89297135959999996
      }
    }
  ],
  "meshes": [
    {
      "name": "Castle_01 - Default_0",
      "primitives": [
        {
          "attributes": {
            "NORMAL": 1,
            "POSITION": 0,
            "TANGENT": 2,
            "TEXCOORD_0": 3
          },
          "indices": 4,
          "material": 0,
          "mode": 4
        }
      ]
    },
    {
      "name": "Castle_03 - Default_0",
      "primitives": [
        {
          "attributes": {
            "NORMAL": 6,
            "POSITION": 5,
            "TANGENT": 7,
            "TEXCOORD_0": 8
          },
          "indices": 9,
          "material": 1,
          "mode": 4
        }
      ]
    },
    {
      "name": "Castle_02 - Default_0",
      "primitives": [
        {
          "attributes": {
            "NORMAL": 11,
            "POSITION": 10,
            "TANGENT": 12,
            "TEXCOORD_0": 13
          },
          "indices": 14,
          "material": 2,
          "mode": 4
        }
      ]
    }
  ],
  "nodes": [
    {
      "children": [
        1
      ],
      "name": "RootNode (gltf orientation matrix)",
      "rotation": [
        -0.70710678118654746,
        -0,
        -0,
        0.70710678118654757
      ]
    },
    {
      "children": [
        2
      ],
      "name": "RootNode (model correction matrix)"
    },
    {
      "children": [
        3
      ],
      "matrix": [
        1,
        0,
        0,
        0,
        0,
        0,
        1,
        0,
        0,
        -1,
        0,
        0,
        0,
        0,
        0,
        1
      ],
      "name": "e1358f42c26e4c54bfafe4e805b83ab8.fbx"
    },
    {
      "children": [
        4
      ],
      "name": "RootNode"
    },
    {
      "children": [
        5
      ],
      "matrix": [
        1.4562103748321533,
        0,
        0,
        0,
        0,
        1.0465292930603016,
        4.5745248514780426e-08,
        0,
        0,
        -1.6442940281607915e-05,
        376.17062377929648,
        0,
        8.8249444961547852,
        1147.7142333984375,
        -29.01947021484375,
        1
      ],
      "name": "Castle"
    },
    {
      "children": [
        6,
        7,
        8
      ],
      "matrix": [
        1,
        0,
        -0,
        0,
        0,
        1,
        0,
        0,
        0,
        0,
        1,
        0,
        -218.54090881347656,
        -132.01443481445312,
        4.7650623321533203,
        1
      ],
      "name": ""
    },
    {
      "mesh": 0,
      "name": "Castle_01 - Default_0"
    },
    {
      "mesh": 1,
      "name": "Castle_03 - Default_0"
    },
    {
      "mesh": 2,
      "name": "Castle_02 - Default_0"
    }
  ],
  "scene": 0,
  "scenes": [
    {
      "name": "OSG_Scene",
      "nodes": [
        0
      ]
    }
  ]
}

